<?xml version="1.0" encoding="utf-8" ?><svg xmlns="http://www.w3.org/2000/svg" xmlns:xlink="http://www.w3.org/1999/xlink" width="1024" height="1024"><defs><linearGradient id="gradient_0" gradientTransform="matrix(1024 0 0 1024 0 512)" gradientUnits="userSpaceOnUse" x1="0" y1="0" x2="1" y2="0"><stop offset="0" stop-color="#1E1E1E"/><stop offset="1" stop-color="#0D0D0D"/></linearGradient></defs><rect fill="url(#gradient_0)" width="1024" height="1024" rx="230" ry="230"/><clipPath id="clip_0"><rect width="1024" height="1024" rx="230" ry="230"/></clipPath><g clip-path="url(#clip_0)"><defs><radialGradient id="gradient_1" gradientTransform="matrix(864 0 0 964 432 482)" gradientUnits="userSpaceOnUse" r="0.5" cx="0" cy="0"><stop offset="0" stop-color="#050505" stop-opacity="0.898"/><stop offset="0.25" stop-color="#0C0C0C" stop-opacity="0.6"/><stop offset="0.5" stop-color="#141414" stop-opacity="0.2471"/><stop offset="0.8" stop-color="#1E1E1E" stop-opacity="0"/><stop offset="1" stop-color="#1E1E1E" stop-opacity="0"/></radialGradient></defs><ellipse fill="url(#gradient_1)" fill-opacity="1" transform="matrix(1 0 0 1 101 45)" cx="432" cy="482" rx="432" ry="482"/></g><clipPath id="clip_1"><rect width="1024" height="1024" rx="230" ry="230"/></clipPath><g clip-path="url(#clip_1)"><g opacity="0.45"><path fill="#FFF" fill-opacity="0.35" transform="matrix(0.996195 -0.0871557 0.0871557 0.996195 596.301 268.441)" d="M108 104L108 12Q108 7.0294 104.4853 3.5147Q100.9706 0 96 0L12 0Q7.0294 0 3.5147 3.5147Q0 7.0294 0 12L0 104Q0 108.9706 3.5147 112.4853Q7.0294 116 12 116L96 116Q100.9706 116 104.4853 112.4853Q108 108.9706 108 104ZM103.4246 4.5754Q106.5 7.6508 106.5 12L106.5 104Q106.5 108.3492 103.4246 111.4246Q100.3492 114.5 96 114.5L12 114.5Q7.6508 114.5 4.5754 111.4246Q1.5 108.3492 1.5 104L1.5 12Q1.5 7.6508 4.5754 4.5754Q7.6508 1.5 12 1.5L96 1.5Q100.3492 1.5 103.4246 4.5754Z" fill-rule="evenodd"/><clipPath id="clip_2"><rect x="581" y="70" width="294" height="314"/></clipPath><g clip-path="url(#clip_2)"><g opacity="0.28"><path fill="#FFF" transform="matrix(0.996195 -0.0871557 0.0871557 0.996195 628.038 304.312)" d="M8.2812 31.5312Q6.9375 31.5156 5.8125 30.8594Q4.7031 30.1875 4.0312 29.0781Q3.375 27.9531 3.375 26.5938Q3.375 25.2188 4.0312 24.0938Q4.7031 22.9688 5.8125 22.2969Q6.9375 21.625 8.2812 21.625L10.9375 21.625L10.9375 17.0625L8.2812 17.0625Q6.9375 17.0625 5.8125 16.4062Q4.7031 15.7344 4.0312 14.6094Q3.375 13.4844 3.375 12.125Q3.375 10.7656 4.0312 9.6562Q4.7031 8.5469 5.8125 7.8906Q6.9375 7.2188 8.2812 7.2188Q9.6562 7.2188 10.7812 7.8906Q11.9062 8.5469 12.5781 9.6562Q13.25 10.7656 13.25 12.125L13.25 14.75L17.8125 14.75L17.8125 12.125Q17.8125 10.7656 18.4688 9.6562Q19.1406 8.5469 20.2656 7.8906Q21.3906 7.2188 22.75 7.2188Q24.1094 7.2188 25.2188 7.8906Q26.3438 8.5469 27.0156 9.6562Q27.6875 10.7656 27.6875 12.125Q27.6875 13.4844 27.0156 14.6094Q26.3438 15.7344 25.2188 16.4062Q24.1094 17.0625 22.75 17.0625L20.125 17.0625L20.125 21.625L22.75 21.625Q24.1094 21.625 25.2188 22.2969Q26.3438 22.9688 27.0156 24.0938Q27.6875 25.2188 27.6875 26.5938Q27.6875 27.9531 27.0156 29.0781Q26.3438 30.1875 25.2188 30.8594Q24.1094 31.5312 22.75 31.5312Q21.3906 31.5312 20.2656 30.8594Q19.1406 30.1875 18.4688 29.0781Q17.8125 27.9531 17.8125 26.5938L17.8125 23.9688L13.25 23.9688L13.25 26.5938Q13.25 27.9531 12.5781 29.0781Q11.9062 30.1875 10.7812 30.8594Q9.6562 31.5156 8.2812 31.5312ZM8.2812 29.2188Q9.0156 29.2031 9.6094 28.8594Q10.2188 28.5 10.5781 27.9062Q10.9375 27.3125 10.9375 26.5938L10.9375 23.9688L8.2812 23.9688Q7.5781 23.9688 6.9844 24.3281Q6.3906 24.6719 6.0312 25.2656Q5.6875 25.8594 5.6875 26.5938Q5.6875 27.3125 6.0312 27.9062Q6.3906 28.5 6.9844 28.8594Q7.5781 29.2031 8.2812 29.2188ZM8.2812 14.75L10.9375 14.75L10.9375 12.125Q10.9375 11.4062 10.5781 10.8281Q10.2188 10.2344 9.6094 9.8906Q9.0156 9.5312 8.2812 9.5312Q7.5781 9.5312 6.9844 9.8906Q6.3906 10.2344 6.0312 10.8281Q5.6875 11.4062 5.6875 12.125Q5.6875 12.8594 6.0312 13.4688Q6.3906 14.0625 6.9844 14.4062Q7.5781 14.75 8.2812 14.75ZM20.125 14.75L22.7344 14.75Q23.4688 14.75 24.0625 14.4062Q24.6562 14.0625 25.0156 13.4688Q25.375 12.8594 25.375 12.125Q25.375 11.4062 25.0156 10.8281Q24.6562 10.2344 24.0625 9.8906Q23.4688 9.5312 22.75 9.5312Q22.0312 9.5312 21.4219 9.8906Q20.8281 10.2344 20.4688 10.8281Q20.125 11.4062 20.125 12.125L20.125 14.75ZM22.75 29.2188Q23.4688 29.2031 24.0625 28.8594Q24.6562 28.5 25.0156 27.9062Q25.375 27.3125 25.375 26.5938Q25.375 25.8594 25.0156 25.2656Q24.6562 24.6719 24.0625 24.3281Q23.4688 23.9688 22.75 23.9688L20.125 23.9688L20.125 26.5938Q20.125 27.3125 20.4688 27.9062Q20.8281 28.5 21.4219 28.8594Q22.0312 29.2031 22.75 29.2188ZM13.25 21.625L17.8125 21.625L17.8125 17.0625L13.25 17.0625L13.25 21.625Z"/></g></g></g></g><clipPath id="clip_3"><rect width="1024" height="1024" rx="230" ry="230"/></clipPath><g clip-path="url(#clip_3)"><g opacity="0.42"><path fill="#FFF" fill-opacity="0.32" transform="matrix(0.990268 0.139173 -0.139173 0.990268 455.098 194.098)" d="M108 104L108 12Q108 7.0294 104.4853 3.5147Q100.9706 0 96 0L12 0Q7.0294 0 3.5147 3.5147Q0 7.0294 0 12L0 104Q0 108.9706 3.5147 112.4853Q7.0294 116 12 116L96 116Q100.9706 116 104.4853 112.4853Q108 108.9706 108 104ZM103.4246 4.5754Q106.5 7.6508 106.5 12L106.5 104Q106.5 108.3492 103.4246 111.4246Q100.3492 114.5 96 114.5L12 114.5Q7.6508 114.5 4.5754 111.4246Q1.5 108.3492 1.5 104L1.5 12Q1.5 7.6508 4.5754 4.5754Q7.6508 1.5 12 1.5L96 1.5Q100.3492 1.5 103.4246 4.5754Z" fill-rule="evenodd"/><clipPath id="clip_4"><path d="M438 20L746 20L746 347L438 347L438 20Z" clip-rule="evenodd"/></clipPath><g clip-path="url(#clip_4)"><g opacity="0.26"><path fill="#FFF" transform="matrix(0.990268 0.139173 -0.139173 0.990268 477.737 236.158)" d="M18.4375 7.7188L29.3125 7.7188L29.3125 10.2188L18.4375 10.2188L18.4375 7.7188ZM2.4062 10.2188L2.4062 7.7188L11.375 7.7188L21.875 28.5L29.3125 28.5L29.3125 31L20.375 31L9.875 10.2188L2.4062 10.2188Z"/></g></g></g></g><clipPath id="clip_5"><rect width="1024" height="1024" rx="230" ry="230"/></clipPath><g clip-path="url(#clip_5)"><g opacity="0.52"><path fill="#FFF" fill-opacity="0.42" transform="matrix(0.819152 0.573576 -0.573576 0.819152 762.652 377)" d="M136 92L136 12Q136 7.0294 132.4853 3.5147Q128.9706 0 124 0L12 0Q7.0294 0 3.5147 3.5147Q0 7.0294 0 12L0 92Q0 96.9706 3.5147 100.4853Q7.0294 104 12 104L124 104Q128.9706 104 132.4853 100.4853Q136 96.9706 136 92ZM131.4246 4.5754Q134.5 7.6508 134.5 12L134.5 92Q134.5 96.3492 131.4246 99.4246Q128.3493 102.5 124 102.5L12 102.5Q7.6508 102.5 4.5754 99.4246Q1.5 96.3492 1.5 92L1.5 12Q1.5 7.6508 4.5754 4.5754Q7.6508 1.5 12 1.5L124 1.5Q128.3493 1.5 131.4246 4.5754Z" fill-rule="evenodd"/><clipPath id="clip_6"><rect x="703.0001" y="227" width="397.9999" height="399"/></clipPath><g clip-path="url(#clip_6)"><g opacity="0.38"><path fill="#FFF" transform="matrix(0.819152 0.573576 -0.573576 0.819152 779.4 430.233)" d="M2.3145 18.1162L14.9414 5.4746L27.5537 18.1162L21.0791 18.1162L21.0791 29L8.7891 29L8.7891 18.1162L2.3145 18.1162ZM7.1045 16.168L10.9277 16.168L10.9277 27.0957L18.9258 27.0957L18.9258 16.168L22.7637 16.168L14.9414 8.3604L7.1045 16.168Z"/></g></g></g></g><clipPath id="clip_7"><rect width="1024" height="1024" rx="230" ry="230"/></clipPath><g clip-path="url(#clip_7)"><g opacity="0.32"><path fill="#FFF" fill-opacity="0.22" transform="matrix(0.615662 0.788011 -0.788011 0.615662 670 740)" d="M72 62L72 10Q72 5.8579 69.0711 2.9289Q66.1421 0 62 0L10 0Q5.8579 0 2.9289 2.9289Q0 5.8579 0 10L0 62Q0 66.1421 2.9289 69.0711Q5.8579 72 10 72L62 72Q66.1421 72 69.0711 69.0711Q72 66.1421 72 62ZM68.364 3.636Q71 6.2721 71 10L71 62Q71 65.7279 68.364 68.364Q65.7279 71 62 71L10 71Q6.2721 71 3.636 68.364Q1 65.7279 1 62L1 10Q1 6.2721 3.636 3.636Q6.2721 1 10 1L62 1Q65.7279 1 68.364 3.636Z" fill-rule="evenodd"/><clipPath id="clip_8"><rect x="612" y="615.0001" width="388" height="389"/></clipPath><g clip-path="url(#clip_8)"><g opacity="0.2"><path fill="#FFF" transform="matrix(0.615662 0.788011 -0.788011 0.615662 659.732 767.465)" d="M5.4492 18.2021Q3.9902 18.2021 2.9268 17.5781Q1.8721 16.9541 1.3008 15.8291Q0.7295 14.7041 0.7295 13.1924Q0.7295 11.707 1.292 10.5732Q1.8633 9.4307 2.8916 8.7979Q3.9287 8.1562 5.3086 8.1562Q6.2314 8.1562 7.04 8.4639Q7.8574 8.7627 8.4727 9.3779Q9.0967 9.9844 9.4482 10.916Q9.7998 11.8389 9.7998 13.0869L9.7998 13.7725L1.7666 13.7725L1.7666 12.2256L8.666 12.2256L7.6113 12.6738Q7.6113 11.8477 7.3477 11.2324Q7.084 10.6172 6.5742 10.2832Q6.0732 9.9404 5.3262 9.9404Q4.5879 9.9404 4.0605 10.2832Q3.5332 10.626 3.252 11.2236Q2.9795 11.8125 2.9795 12.5508L2.9795 13.5967Q2.9795 14.502 3.2871 15.1348Q3.5947 15.7676 4.1572 16.0928Q4.7285 16.418 5.4844 16.418Q5.9941 16.418 6.4072 16.2686Q6.8203 16.1191 7.1104 15.8379Q7.4092 15.5479 7.5586 15.1348L9.6504 15.4688Q9.4307 16.2861 8.8506 16.9014Q8.2793 17.5166 7.4092 17.8594Q6.5391 18.2021 5.4492 18.2021ZM15.3545 18.2021Q14.2295 18.2021 13.3506 17.877Q12.4717 17.543 11.918 16.9102Q11.3643 16.2686 11.2148 15.3545L13.3682 15.0381Q13.5352 15.7588 14.0449 16.1191Q14.5547 16.4707 15.3809 16.4707Q16.2158 16.4707 16.6992 16.1367Q17.1914 15.8027 17.1914 15.3105Q17.1914 14.8887 16.8574 14.6162Q16.5322 14.3438 15.8818 14.2031L14.2295 13.8516Q12.8496 13.5527 12.1641 12.8672Q11.4785 12.1816 11.4785 11.1094Q11.4785 10.2129 11.9707 9.5537Q12.4629 8.8857 13.3418 8.5254Q14.2207 8.1562 15.3896 8.1562Q16.5059 8.1562 17.3145 8.4902Q18.1318 8.8154 18.624 9.4131Q19.125 10.002 19.2832 10.8105L17.2354 11.1182Q17.1035 10.5908 16.6553 10.2217Q16.207 9.8525 15.4248 9.8525Q14.6953 9.8525 14.2207 10.1777Q13.7461 10.4941 13.7461 10.9863Q13.7461 11.417 14.0713 11.6895Q14.3965 11.9619 15.1084 12.1201L16.7783 12.4717Q18.167 12.7705 18.835 13.4209Q19.5117 14.0713 19.5117 15.0996Q19.5117 16.0312 18.9756 16.7256Q18.4482 17.4199 17.5078 17.8154Q16.5762 18.2021 15.3545 18.2021ZM25.5938 18.2021Q24.1787 18.2021 23.1328 17.5781Q22.0869 16.9453 21.5068 15.8115Q20.9355 14.6777 20.9355 13.1836Q20.9355 11.6807 21.5068 10.5469Q22.0869 9.4131 23.1328 8.7891Q24.1787 8.1562 25.5938 8.1562Q26.4287 8.1562 27.1406 8.376Q27.8525 8.5957 28.4062 9.0176Q28.96 9.4307 29.3203 10.0195Q29.6895 10.6084 29.8301 11.3379L27.6768 11.6807Q27.5977 11.3027 27.4131 10.9951Q27.2373 10.6875 26.9736 10.4678Q26.7188 10.248 26.376 10.125Q26.0332 10.002 25.6113 10.002Q24.8291 10.002 24.3018 10.415Q23.7832 10.8281 23.5107 11.5488Q23.2471 12.2607 23.2471 13.1836Q23.2471 14.0889 23.5107 14.8096Q23.7832 15.5215 24.3018 15.9346Q24.8291 16.3477 25.6113 16.3477Q26.0332 16.3477 26.376 16.2246Q26.7275 16.1016 26.9912 15.8818Q27.2549 15.6533 27.4307 15.3281Q27.6152 15.0029 27.6943 14.6162L29.8477 14.959Q29.7158 15.7061 29.3467 16.3037Q28.9775 16.8926 28.4238 17.3232Q27.8701 17.7451 27.1494 17.9736Q26.4375 18.2021 25.5938 18.2021Z"/></g></g></g></g><clipPath id="clip_9"><rect width="1024" height="1024" rx="230" ry="230"/></clipPath><g clip-path="url(#clip_9)"><g opacity="0.32"><path fill="#FFF" fill-opacity="0.22" transform="matrix(0.258819 0.965926 -0.965926 0.258819 520 830)" d="M100 62L100 10Q100 5.8579 97.0711 2.9289Q94.1421 0 90 0L10 0Q5.8579 0 2.9289 2.9289Q0 5.8579 0 10L0 62Q0 66.1421 2.9289 69.0711Q5.8579 72 10 72L90 72Q94.1421 72 97.0711 69.0711Q100 66.1421 100 62ZM96.364 3.636Q99 6.2721 99 10L99 62Q99 65.7279 96.364 68.364Q93.7279 71 90 71L10 71Q6.2721 71 3.636 68.364Q1 65.7279 1 62L1 10Q1 6.2721 3.636 3.636Q6.2721 1 10 1L90 1Q93.7279 1 96.364 3.636Z" fill-rule="evenodd"/><clipPath id="clip_10"><rect x="449" y="776.9999" width="341.0001" height="352.0001"/></clipPath><g clip-path="url(#clip_10)"><g opacity="0.2"><path fill="#FFF" transform="matrix(0.258819 0.965926 -0.965926 0.258819 503.917 866.571)" d="M5.7832 8.2969L5.7832 10.0811L0.167 10.0811L0.167 8.2969L5.7832 8.2969ZM1.6172 5.915L3.8848 5.915L3.8848 15.2578Q3.8848 15.7764 4.1045 16.0137Q4.333 16.251 4.8604 16.251Q5.0273 16.251 5.291 16.2246Q5.5547 16.1982 5.7129 16.1719L5.9941 17.9385Q5.6514 18.0264 5.2646 18.0615Q4.8779 18.1055 4.5088 18.1055Q3.0938 18.1055 2.3555 17.4287Q1.6172 16.752 1.6172 15.4775L1.6172 5.915ZM10.3887 18.1934Q9.457 18.1934 8.71 17.8594Q7.9717 17.5254 7.541 16.875Q7.1104 16.2246 7.1104 15.2666Q7.1104 14.4404 7.418 13.9043Q7.7256 13.3682 8.2529 13.0518Q8.7891 12.7266 9.457 12.5596Q10.125 12.3926 10.8369 12.3223Q11.6982 12.2256 12.2256 12.1553Q12.7529 12.085 12.9902 11.9268Q13.2363 11.7686 13.2363 11.4434L13.2363 11.3906Q13.2363 10.9248 13.0342 10.5996Q12.8408 10.2656 12.4629 10.0898Q12.085 9.9141 11.5225 9.9141Q10.9688 9.9141 10.5469 10.0898Q10.1338 10.2568 9.8701 10.5469Q9.6152 10.8281 9.5098 11.1709L7.3916 10.8369Q7.6289 9.9492 8.209 9.3604Q8.7979 8.7627 9.6416 8.4639Q10.4941 8.1562 11.5312 8.1562Q12.2695 8.1562 12.9727 8.332Q13.6846 8.5078 14.2559 8.9033Q14.8271 9.29 15.1611 9.9316Q15.5039 10.5645 15.5039 11.4873L15.5039 18L13.3154 18L13.3154 16.6553L13.2363 16.6553Q13.0254 17.0684 12.6475 17.4199Q12.2695 17.7715 11.707 17.9824Q11.1533 18.1934 10.3887 18.1934ZM10.9688 16.5059Q11.6719 16.5059 12.1816 16.2334Q12.7002 15.9521 12.9727 15.4951Q13.2539 15.0381 13.2539 14.4932L13.2539 13.3682Q13.1396 13.4561 12.8848 13.5352Q12.6387 13.6055 12.3135 13.667Q11.9971 13.7197 11.6719 13.7725Q11.3555 13.8164 11.1094 13.8428Q10.6084 13.9131 10.1953 14.0801Q9.791 14.2383 9.5537 14.5195Q9.3164 14.792 9.3164 15.2402Q9.3164 15.6533 9.5273 15.9346Q9.7383 16.2158 10.1074 16.3652Q10.4766 16.5059 10.9688 16.5059ZM22.9746 18.1846Q22.1836 18.1846 21.6299 17.9209Q21.0762 17.6572 20.7246 17.2705Q20.373 16.875 20.1621 16.4707L20.0479 16.4707L20.0479 18L17.8242 18L17.8242 4.9043L20.0918 4.9043L20.0918 9.8525L20.1709 9.8525Q20.3818 9.4658 20.7246 9.0791Q21.0674 8.6836 21.6123 8.4199Q22.166 8.1562 22.9834 8.1562Q24.1348 8.1562 25.04 8.7451Q25.9541 9.334 26.4814 10.4502Q27.0176 11.5664 27.0176 13.166Q27.0176 14.7393 26.499 15.8643Q25.9805 16.9805 25.0664 17.5869Q24.1523 18.1846 22.9746 18.1846ZM22.377 16.3037Q23.124 16.3037 23.6426 15.9082Q24.1611 15.5039 24.4336 14.792Q24.7061 14.0801 24.7061 13.1572Q24.7061 12.2256 24.4336 11.5225Q24.1699 10.8193 23.6514 10.4238Q23.1328 10.0283 22.377 10.0283Q21.6299 10.0283 21.1025 10.415Q20.584 10.8018 20.3027 11.5049Q20.0303 12.208 20.0303 13.1572Q20.0303 14.0977 20.3027 14.8096Q20.584 15.5127 21.1113 15.9082Q21.6387 16.3037 22.377 16.3037Z"/></g></g></g></g><clipPath id="clip_11"><rect width="1024" height="1024" rx="230" ry="230"/></clipPath><g clip-path="url(#clip_11)"><g opacity="0.38"><path fill="#FFF" fill-opacity="0.28" transform="matrix(0.258819 -0.965926 0.965926 0.258819 340 800)" d="M78 60L78 10Q78 5.8579 75.0711 2.9289Q72.1421 0 68 0L10 0Q5.8579 0 2.9289 2.9289Q0 5.8579 0 10L0 60Q0 64.1421 2.9289 67.0711Q5.8579 70 10 70L68 70Q72.1421 70 75.0711 67.0711Q78 64.1421 78 60ZM74.0104 3.9896Q76.5 6.4792 76.5 10L76.5 60Q76.5 63.5208 74.0104 66.0104Q71.5208 68.5 68 68.5L10 68.5Q6.4792 68.5 3.9896 66.0104Q1.5 63.5208 1.5 60L1.5 10Q1.5 6.4792 3.9896 3.9896Q6.4792 1.5 10 1.5L68 1.5Q71.5208 1.5 74.0104 3.9896Z" fill-rule="evenodd"/><clipPath id="clip_12"><rect x="143" y="481" width="338" height="338"/></clipPath><g clip-path="url(#clip_12)"><g opacity="0.25"><path fill="#FFF" transform="matrix(0.258819 -0.965926 0.965926 0.258819 367.984 784.426)" d="M1.377 19L1.377 4.4492L10.8496 4.4492L10.8496 6.6562L3.9746 6.6562L3.9746 10.8945L10.2441 10.8945L10.2441 13.0723L3.9746 13.0723L3.9746 19L1.377 19ZM15.0586 12.7891L15.0586 19L12.5391 19L12.5391 8.2871L14.9512 8.2871L14.9805 10.9531L14.6875 10.9531Q15.1465 9.5566 16.0449 8.8438Q16.9434 8.1211 18.2812 8.1211Q19.3945 8.1211 20.2246 8.5996Q21.0645 9.0781 21.5234 9.9961Q21.9922 10.9043 21.9922 12.2227L21.9922 19L19.4824 19L19.4824 12.6133Q19.4824 11.5 18.916 10.8945Q18.3594 10.2793 17.3633 10.2793Q16.6992 10.2793 16.1719 10.5723Q15.6543 10.8555 15.3516 11.4121Q15.0586 11.9688 15.0586 12.7891Z"/></g></g></g></g><clipPath id="clip_13"><rect width="1024" height="1024" rx="230" ry="230"/></clipPath><g clip-path="url(#clip_13)"><g opacity="0.26"><path fill="#FFF" fill-opacity="0.16" transform="matrix(0.573576 -0.819152 0.819152 0.573576 180 690)" d="M152 50L152 8Q152 4.6863 149.6568 2.3431Q147.3137 0 144 0L8 0Q4.6863 0 2.3431 2.3431Q0 4.6863 0 8L0 50Q0 53.3137 2.3431 55.6568Q4.6863 58 8 58L144 58Q147.3137 58 149.6568 55.6568Q152 53.3137 152 50ZM148.9497 3.0503Q151 5.1005 151 8L151 50Q151 52.8995 148.9497 54.9497Q146.8995 57 144 57L8 57Q5.1005 57 3.0503 54.9497Q1 52.8995 1 50L1 8Q1 5.1005 3.0503 3.0503Q5.1005 1 8 1L144 1Q146.8995 1 148.9497 3.0503Z" fill-rule="evenodd"/><clipPath id="clip_14"><rect x="8" y="304" width="412" height="424"/></clipPath><g clip-path="url(#clip_14)"><g opacity="0.15"><path fill="#FFF" transform="matrix(0.573576 -0.819152 0.819152 0.573576 219.057 665.602)" d="M4.6406 18.2109Q3.6387 18.2109 2.8477 17.9121Q2.0566 17.6045 1.5469 17.0068Q1.0371 16.4092 0.8877 15.5303L2.3818 15.249Q2.5664 16.0664 3.1377 16.4619Q3.7178 16.8486 4.623 16.8486Q5.6338 16.8486 6.2314 16.418Q6.8379 15.9785 6.8379 15.3721Q6.8379 14.8623 6.4688 14.5283Q6.1084 14.1943 5.4053 14.0361L3.7969 13.6494Q2.4697 13.3418 1.8193 12.6826Q1.1689 12.0146 1.1689 10.9863Q1.1689 10.1514 1.626 9.5186Q2.0918 8.877 2.9004 8.5166Q3.709 8.1562 4.7461 8.1562Q5.748 8.1562 6.4688 8.4727Q7.1895 8.7891 7.6289 9.3516Q8.0771 9.9141 8.2529 10.6523L6.8203 10.9424Q6.6621 10.3711 6.1699 9.9316Q5.6865 9.4834 4.7549 9.4834Q3.876 9.4834 3.3047 9.8877Q2.7422 10.292 2.7422 10.9072Q2.7422 11.4521 3.1377 11.7773Q3.5332 12.1025 4.3506 12.2959L5.8359 12.6475Q7.1719 12.9639 7.8047 13.623Q8.4463 14.2734 8.4463 15.2842Q8.4463 16.1455 7.9629 16.8047Q7.4795 17.4639 6.6182 17.8418Q5.7656 18.2109 4.6406 18.2109ZM10.6172 21.6738L10.6172 8.2969L12.1289 8.2969L12.1289 9.8262L12.2695 9.8262Q12.4629 9.501 12.7969 9.1143Q13.1309 8.7275 13.6934 8.4463Q14.2559 8.1562 15.1348 8.1562Q16.3652 8.1562 17.2881 8.7715Q18.2197 9.3867 18.7471 10.5117Q19.2744 11.6367 19.2744 13.166Q19.2744 14.7041 18.7471 15.8379Q18.2285 16.9629 17.2969 17.5869Q16.374 18.2021 15.1436 18.2021Q14.291 18.2021 13.7197 17.9209Q13.1572 17.6309 12.8145 17.2354Q12.4805 16.8398 12.2783 16.5059L12.1816 16.5059L12.1816 21.6738L10.6172 21.6738ZM14.9062 16.8047Q15.8027 16.8047 16.418 16.3301Q17.042 15.8555 17.3584 15.0293Q17.6836 14.2031 17.6836 13.1572Q17.6836 12.1113 17.3672 11.3027Q17.0508 10.4854 16.4268 10.0195Q15.8115 9.5537 14.9062 9.5537Q14.0098 9.5537 13.3945 10.0107Q12.7793 10.459 12.4541 11.2676Q12.1377 12.0762 12.1377 13.1572Q12.1377 14.2383 12.4541 15.0645Q12.7793 15.8818 13.4033 16.3477Q14.0273 16.8047 14.9062 16.8047ZM24.3809 18.2109Q23.4492 18.2109 22.6934 17.8682Q21.9463 17.5254 21.498 16.8574Q21.0586 16.1895 21.0586 15.2314Q21.0586 14.3965 21.3838 13.8779Q21.7178 13.3594 22.2627 13.0605Q22.8164 12.7529 23.4844 12.6035Q24.1611 12.4541 24.8467 12.3662Q25.7344 12.252 26.2705 12.1904Q26.8154 12.1289 27.0703 11.9883Q27.334 11.8389 27.334 11.4785L27.334 11.417Q27.334 10.8281 27.0967 10.4062Q26.8682 9.9844 26.4111 9.7646Q25.9541 9.5361 25.2773 9.5361Q24.583 9.5361 24.082 9.7559Q23.5898 9.9668 23.2734 10.3096Q22.9658 10.6436 22.8428 11.0215L21.3223 10.626Q21.6211 9.7383 22.2275 9.2021Q22.834 8.6572 23.6162 8.4111Q24.4072 8.1562 25.2422 8.1562Q25.8047 8.1562 26.4375 8.3057Q27.0703 8.4463 27.624 8.8066Q28.1865 9.167 28.5381 9.835Q28.8896 10.4941 28.8896 11.54L28.8896 18L27.3516 18L27.3516 16.6641L27.2637 16.6641Q27.0967 17.0068 26.7363 17.3672Q26.376 17.7275 25.7959 17.9736Q25.2158 18.2109 24.3809 18.2109ZM24.6357 16.8223Q25.5234 16.8223 26.1211 16.4883Q26.7188 16.1455 27.0264 15.6006Q27.334 15.0557 27.334 14.458L27.334 13.1396Q27.2373 13.2451 26.9297 13.333Q26.6309 13.4209 26.2266 13.4912Q25.8311 13.5615 25.4355 13.6143Q25.0488 13.6582 24.7764 13.6934Q24.2139 13.7637 23.7217 13.9395Q23.2295 14.1064 22.9307 14.4316Q22.6318 14.7568 22.6318 15.3105Q22.6318 15.8027 22.8867 16.1455Q23.1504 16.4795 23.5986 16.6553Q24.0469 16.8223 24.6357 16.8223ZM35.5078 18.2109Q34.1807 18.2109 33.1787 17.5869Q32.1855 16.9541 31.623 15.8203Q31.0693 14.6865 31.0693 13.2012Q31.0693 11.6895 31.623 10.5557Q32.1855 9.4131 33.1787 8.7891Q34.1807 8.1562 35.5078 8.1562Q36.2373 8.1562 36.8789 8.3496Q37.5205 8.543 38.0391 8.9121Q38.5576 9.2812 38.9268 9.8086Q39.2959 10.3271 39.4717 10.9863L37.9512 11.3203Q37.8545 10.9336 37.6348 10.6172Q37.4238 10.292 37.1162 10.0547Q36.8086 9.8174 36.4043 9.6855Q36 9.5537 35.5078 9.5537Q34.5498 9.5537 33.917 10.0547Q33.2842 10.5469 32.9678 11.373Q32.6514 12.1992 32.6514 13.2012Q32.6514 14.1855 32.9678 15.0117Q33.2842 15.8291 33.9082 16.3213Q34.541 16.8135 35.5078 16.8135Q36 16.8135 36.4043 16.6816Q36.8174 16.5498 37.1338 16.3037Q37.4502 16.0576 37.6611 15.7236Q37.8721 15.3809 37.9775 14.9854L39.498 15.3193Q39.3223 15.9873 38.9531 16.5146Q38.584 17.042 38.0566 17.4287Q37.5381 17.8066 36.8877 18.0088Q36.2373 18.2109 35.5078 18.2109ZM45.6943 18.2109Q44.2881 18.2109 43.2686 17.5781Q42.249 16.9453 41.7041 15.8203Q41.1592 14.6953 41.1592 13.21Q41.1592 11.7246 41.6953 10.582Q42.2402 9.4395 43.2246 8.7979Q44.2178 8.1562 45.5273 8.1562Q46.3535 8.1562 47.1182 8.4375Q47.8828 8.71 48.4893 9.3076Q49.0957 9.8965 49.4473 10.8281Q49.7988 11.7598 49.7988 13.0518L49.7988 13.6582L42.1699 13.6582L42.1699 12.3398L48.9463 12.3398L48.2344 12.8145Q48.2344 11.8564 47.918 11.1182Q47.6104 10.3799 47.0039 9.9668Q46.4062 9.5449 45.5273 9.5449Q44.6572 9.5449 44.0244 9.9668Q43.4004 10.3887 43.0664 11.0918Q42.7324 11.7861 42.7324 12.6211L42.7324 13.4473Q42.7324 14.5107 43.0928 15.2666Q43.4619 16.0225 44.1299 16.418Q44.8066 16.8135 45.7031 16.8135Q46.3008 16.8135 46.7754 16.6377Q47.2588 16.4619 47.6016 16.1191Q47.9443 15.7764 48.1201 15.2754L49.6406 15.6094Q49.4209 16.374 48.876 16.9629Q48.3311 17.5518 47.5137 17.8857Q46.7051 18.2109 45.6943 18.2109Z"/></g></g></g></g><clipPath id="clip_15"><rect width="1024" height="1024" rx="230" ry="230"/></clipPath><g clip-path="url(#clip_15)"><g opacity="0.45"><path fill="#FFF" fill-opacity="0.35" transform="matrix(0.819152 -0.573576 0.573576 0.819152 215.86 546.15)" d="M70 96L70 10Q70 5.8579 67.0711 2.9289Q64.1421 0 60 0L10 0Q5.8579 0 2.9289 2.9289Q0 5.8579 0 10L0 96Q0 100.1421 2.9289 103.0711Q5.8579 106 10 106L60 106Q64.1421 106 67.0711 103.0711Q70 100.1421 70 96ZM66.0104 3.9896Q68.5 6.4792 68.5 10L68.5 96Q68.5 99.5208 66.0104 102.0104Q63.5208 104.5 60 104.5L10 104.5Q6.4792 104.5 3.9896 102.0104Q1.5 99.5208 1.5 96L1.5 10Q1.5 6.4792 3.9896 3.9896Q6.4792 1.5 10 1.5L60 1.5Q63.5208 1.5 66.0104 3.9896Z" fill-rule="evenodd"/><clipPath id="clip_16"><rect x="111" y="251" width="374.0001" height="382"/></clipPath><g clip-path="url(#clip_16)"><g opacity="0.3"><path fill="#FFF" transform="matrix(0.819152 -0.573577 0.573577 0.819152 247.158 568.183)" d="M11.334 27L2.4199 18.0859L11.334 9.1719L12.8789 10.7168L9.9941 13.5879Q9.2969 14.2852 8.5039 15.0234Q7.7246 15.748 6.9316 16.459Q6.1523 17.1699 5.4414 17.7852L5.4414 17.1699Q6.0156 17.1152 6.5762 17.0742Q7.1504 17.0332 7.7109 17.0059Q8.2852 16.9785 8.8457 16.9785L22.3809 16.9785Q23.5977 16.9785 24.5957 16.3906Q25.5938 15.8027 26.1816 14.8047Q26.7695 13.8066 26.7695 12.5898Q26.7695 11.373 26.1816 10.3887Q25.5938 9.3906 24.5957 8.8027Q23.5977 8.2012 22.3809 8.2012L21.3691 8.2012L21.3691 6L22.3809 6Q24.2129 6 25.7168 6.8887Q27.2207 7.7773 28.1094 9.2812Q29.0117 10.7715 29.0117 12.5898Q29.0117 14.4219 28.1094 15.9258Q27.2207 17.416 25.7168 18.3047Q24.2129 19.1934 22.3809 19.1934L8.8457 19.1934Q8.2852 19.1934 7.7109 19.166Q7.1504 19.1387 6.5762 19.0977Q6.0156 19.0566 5.4414 19.002L5.4414 18.3867Q5.9746 18.8516 6.5488 19.3711Q7.123 19.877 7.7109 20.4238Q8.3125 20.9707 8.8867 21.5176Q9.4609 22.0645 9.9941 22.584L12.8789 25.4551L11.334 27Z"/></g></g></g></g><clipPath id="clip_17"><rect width="1024" height="1024" rx="230" ry="230"/></clipPath><g clip-path="url(#clip_17)"><g opacity="0.5"><path fill="#FFF" fill-opacity="0.4" transform="matrix(0.951057 -0.309017 0.309017 0.951057 142.382 452.318)" d="M124 46L124 8Q124 4.6863 121.6568 2.3431Q119.3137 0 116 0L8 0Q4.6863 0 2.3431 2.3431Q0 4.6863 0 8L0 46Q0 49.3137 2.3431 51.6568Q4.6863 54 8 54L116 54Q119.3137 54 121.6568 51.6568Q124 49.3137 124 46ZM120.9497 3.0503Q123 5.1005 123 8L123 46Q123 48.8995 120.9497 50.9497Q118.8995 53 116 53L8 53Q5.1005 53 3.0503 50.9497Q1 48.8995 1 46L1 8Q1 5.1005 3.0503 3.0503Q5.1005 1 8 1L116 1Q118.8995 1 120.9497 3.0503Z" fill-rule="evenodd"/><clipPath id="clip_18"><rect x="77" y="166" width="354" height="350"/></clipPath><g clip-path="url(#clip_18)"><g opacity="0.35"><path fill="#FFF" transform="matrix(0.951057 -0.309017 0.309017 0.951057 184.661 451.724)" d="M10.5234 23L1.8516 14.2812L10.5234 5.5391L26.8125 5.5391L26.8125 23L10.5234 23ZM11.4141 20.8203L24.6328 20.8203L24.6328 7.7188L11.4141 7.7188L4.8984 14.2812L11.4141 20.8203ZM21.5977 17.8203L20.1094 19.3203L11.4492 10.7188L12.9141 9.2188L21.5977 17.8203ZM12.9141 19.3203L11.4492 17.8203L20.1094 9.2188L21.5977 10.7188L12.9141 19.3203Z"/></g></g></g></g><clipPath id="clip_19"><rect width="1024" height="1024" rx="230" ry="230"/></clipPath><g clip-path="url(#clip_19)"><g opacity="0.48"><clipPath id="clip_20"><rect x="250" y="276" width="89" height="78"/></clipPath><g clip-path="url(#clip_20)"><path fill="#FFF" fill-opacity="0.38" transform="matrix(0.990268 -0.139173 0.139173 0.990268 250.593 287.642)" d="M80 56L80 10Q80 5.8579 77.0711 2.9289Q74.1421 0 70 0L10 0Q5.8579 0 2.9289 2.9289Q0 5.8579 0 10L0 56Q0 60.1421 2.9289 63.0711Q5.8579 66 10 66L70 66Q74.1421 66 77.0711 63.0711Q80 60.1421 80 56ZM76.0104 3.9896Q78.5 6.4792 78.5 10L78.5 56Q78.5 59.5208 76.0104 62.0104Q73.5208 64.5 70 64.5L10 64.5Q6.4792 64.5 3.9896 62.0104Q1.5 59.5208 1.5 56L1.5 10Q1.5 6.4792 3.9896 3.9896Q6.4792 1.5 10 1.5L70 1.5Q73.5208 1.5 76.0104 3.9896Z" fill-rule="evenodd"/></g><clipPath id="clip_21"><rect x="250" y="276" width="89" height="78"/></clipPath><g clip-path="url(#clip_21)"><g opacity="0.3"><path fill="#FFF" transform="matrix(0.990268 -0.139173 0.139173 0.990268 267.821 309.457)" d="M1.084 14L1.084 3.0869L3.0396 3.0869L3.0396 7.5986L8.1152 7.5986L8.1152 3.0869L10.0708 3.0869L10.0708 14L8.1152 14L8.1152 9.2466L3.0396 9.2466L3.0396 14L1.084 14ZM15.7104 14.1685Q14.5239 14.1685 13.645 13.6411Q12.7661 13.1138 12.2827 12.1689Q11.7993 11.2168 11.7993 9.957Q11.7993 8.6899 12.2827 7.7378Q12.7661 6.7856 13.645 6.2583Q14.5239 5.731 15.7104 5.731Q16.9043 5.731 17.7832 6.2583Q18.6621 6.7856 19.1382 7.7378Q19.6216 8.6899 19.6216 9.957Q19.6216 11.2168 19.1382 12.1689Q18.6621 13.1138 17.7832 13.6411Q16.9043 14.1685 15.7104 14.1685ZM15.7104 12.623Q16.3696 12.623 16.8091 12.2642Q17.2559 11.9053 17.4683 11.3047Q17.688 10.6968 17.688 9.9497Q17.688 9.1953 17.4683 8.5947Q17.2559 7.9868 16.8091 7.6353Q16.3696 7.2764 15.7104 7.2764Q15.0513 7.2764 14.6118 7.6353Q14.1724 7.9868 13.9526 8.5947Q13.7402 9.1953 13.7402 9.9497Q13.7402 10.6968 13.9526 11.3047Q14.1724 11.9053 14.6118 12.2642Q15.0513 12.623 15.7104 12.623ZM21.2549 14L21.2549 5.8335L23.0493 5.8335L23.1152 7.7891L22.9761 7.7891Q23.1592 7.0713 23.5254 6.6099Q23.8916 6.1484 24.3823 5.9287Q24.8804 5.7017 25.4224 5.7017Q26.3086 5.7017 26.8579 6.2583Q27.4146 6.8149 27.6343 7.877L27.4072 7.877Q27.5757 7.1592 27.9785 6.6758Q28.3813 6.1924 28.938 5.9507Q29.502 5.7017 30.1392 5.7017Q30.8716 5.7017 31.4575 6.0239Q32.0508 6.3462 32.395 6.9688Q32.7393 7.5913 32.7393 8.4995L32.7393 14L30.835 14L30.835 8.7925Q30.835 8.0308 30.4175 7.6792Q30 7.3276 29.4141 7.3276Q28.96 7.3276 28.623 7.5254Q28.2861 7.7231 28.103 8.0747Q27.9272 8.4189 27.9272 8.8804L27.9272 14L26.0742 14L26.0742 8.7046Q26.0742 8.0747 25.6787 7.7012Q25.2905 7.3276 24.6826 7.3276Q24.2725 7.3276 23.9209 7.5181Q23.5693 7.7085 23.3643 8.082Q23.1592 8.4556 23.1592 9.0049L23.1592 14L21.2549 14ZM38.3423 14.1685Q37.1118 14.1685 36.2183 13.6484Q35.332 13.1284 34.8486 12.1909Q34.3726 11.2461 34.3726 9.9644Q34.3726 8.7119 34.8486 7.7598Q35.3247 6.8003 36.189 6.2656Q37.0532 5.731 38.2178 5.731Q38.9722 5.731 39.646 5.98Q40.3271 6.2217 40.8472 6.7271Q41.3672 7.2324 41.6602 8.0088Q41.9604 8.7852 41.9604 9.8545L41.9604 10.4478L35.2661 10.4478L35.2661 9.1587L41.0156 9.1587L40.1294 9.5396Q40.1294 8.8438 39.9097 8.3237Q39.6973 7.8037 39.2725 7.5181Q38.855 7.2251 38.2324 7.2251Q37.6025 7.2251 37.1631 7.5181Q36.7236 7.811 36.4893 8.3091Q36.2622 8.7998 36.2622 9.4077L36.2622 10.3013Q36.2622 11.0703 36.5259 11.605Q36.7896 12.1323 37.2583 12.4033Q37.7344 12.6743 38.3643 12.6743Q38.7891 12.6743 39.126 12.5571Q39.4702 12.4326 39.7119 12.1982Q39.9609 11.9565 40.0928 11.6123L41.8359 11.9492Q41.6455 12.6157 41.1621 13.1138Q40.686 13.6118 39.9683 13.8901Q39.2578 14.1685 38.3423 14.1685Z"/></g></g></g></g><defs><radialGradient id="gradient_2" gradientTransform="matrix(639 0 0 416 319.5 208)" gradientUnits="userSpaceOnUse" r="0.5" cx="0" cy="0"><stop offset="0" stop-color="#0A0A0A" stop-opacity="0.549"/><stop offset="0.35" stop-color="#141414" stop-opacity="0.2"/><stop offset="0.75" stop-color="#1E1E1E" stop-opacity="0"/><stop offset="1" stop-color="#1E1E1E" stop-opacity="0"/></radialGradient></defs><rect fill="url(#gradient_2)" fill-opacity="1" transform="matrix(1 0 0 1 260 345)" width="639" height="416" rx="22" ry="22"/><path fill="#FFF" transform="matrix(1 0 0 1 262.276 283)" d="M57.6 367.6Q56.16 371.2 47.88 371.2Q39.6 371.2 33.48 366.52Q29.16 362.2 27.72 359.68Q26.64 357.52 29.16 351.76Q31.68 346.36 37.8 332.32Q39.24 323.68 42.84 315.04Q46.44 306.04 48.24 302.44Q49.68 297.4 54 285.88Q58.68 274 64.44 259.6Q70.56 245.2 75.96 232.6Q81.36 219.64 83.88 213.16Q90 198.76 96.48 182.92Q102.96 167.08 114.12 142.96Q115.56 139.36 113.04 135.4Q110.52 131.44 104.4 131.44Q100.8 127.48 100.44 123.16Q100.08 118.48 104.04 116.68L137.16 105.52Q154.08 101.56 171.72 103.36Q189.72 104.8 205.56 113.08Q222.84 123.16 230.76 135.4Q238.68 147.64 239.4 160.24Q240.48 172.48 236.52 182.56Q233.64 190.12 225.36 199.12Q217.44 208.12 206.64 217.12Q196.2 226.12 184.68 233.68Q173.52 240.88 163.8 244.84Q154.8 249.16 143.64 253.84Q132.48 258.16 122.04 261.4Q116.28 262.84 108.36 262.84Q100.44 262.84 96.48 261.4L90.36 272.92Q86.76 285.88 77.76 311.44Q69.12 337 57.6 367.6ZM200.52 374.44Q197.64 375.52 190.8 375.16Q184.32 374.8 176.04 369.4Q160.2 360.04 144.36 346.72Q128.52 333.4 108.72 310.72Q101.16 301.72 97.2 292.72Q93.6 283.72 87.84 270.04L82.8 250.6L96.48 241.6L112.32 254.56Q118.08 267.16 125.64 278.68Q133.56 290.2 141.48 299.2Q147.96 306.76 159.12 317.56Q170.28 328 182.88 337.72Q195.48 347.44 205.56 352.48Q207.72 354.28 206.64 359.32Q205.92 364.72 203.76 369.4Q201.96 374.08 200.52 374.44ZM109.8 233.32Q118.08 232.6 127.8 229Q137.88 225.04 149.04 220.36Q159.48 215.32 169.56 209.56Q180 203.44 188.28 196.24Q196.92 189.04 201.6 180.76Q206.64 172.48 205.92 163.12Q205.92 158.44 203.04 152.68Q200.16 146.92 195.48 142.24Q191.16 137.56 186.48 136.12Q172.08 132.52 164.52 131.8Q156.96 131.08 153.36 133.96Q150.12 136.84 148.32 144.04Q148.32 145.12 145.44 150.88Q142.56 156.64 138.24 165.64Q134.28 174.28 130.32 184.36Q119.88 205.6 114.84 215.68Q110.16 225.4 109.08 228.64Q108.36 231.88 109.8 233.32Z"/><clipPath id="clip_22"><rect width="1024" height="1024" rx="230" ry="230"/></clipPath><g clip-path="url(#clip_22)"><g opacity="0.58"><path fill="#FFF" transform="matrix(1 0 0 1 470.276 553)" d="M61.1797 97L41.2578 45.4375L50.2422 45.4375L61.375 75.125Q62.791 78.8359 64.0605 82.5469Q65.3301 86.2578 66.5508 89.9688L64.5488 89.9688Q65.8184 86.2578 67.0391 82.5469Q68.3086 78.8359 69.6758 75.125L80.6621 45.4375L89.5 45.4375L69.5781 97L61.1797 97ZM97.1172 97L97.1172 45.4375L105.418 45.4375L105.418 97L97.1172 97ZM101.2676 35.3789Q98.9238 35.3789 97.2637 33.7188Q95.6035 32.0586 95.6035 29.7148Q95.6035 27.3711 97.2637 25.7109Q98.9238 24.0508 101.2676 24.0508Q103.6113 24.0508 105.2715 25.7109Q106.9316 27.3711 106.9316 29.7148Q106.9316 32.0586 105.2715 33.7188Q103.6113 35.3789 101.2676 35.3789ZM135.6914 98.1719Q130.1738 98.1719 125.6816 96.3652Q121.1895 94.5586 118.4062 90.8965Q115.623 87.1855 115.2812 81.5703L123.4844 81.5703Q123.9238 86.1602 127 88.6016Q130.0762 91.043 135.4961 91.043Q140.8672 91.043 143.9434 88.7969Q147.0684 86.5508 147.0684 83.1328Q147.0684 80.2031 144.9199 78.4453Q142.7715 76.6875 139.3047 75.9062L131.0039 73.9531Q123.8262 72.2441 120.1152 68.582Q116.4531 64.9199 116.4531 59.3047Q116.4531 54.9102 118.7969 51.541Q121.1895 48.123 125.3887 46.2188Q129.6367 44.2656 135.1543 44.2656Q140.5254 44.2656 144.7734 46.3164Q149.0703 48.3184 151.5605 52.0293Q154.0996 55.7402 154.2461 60.8672L146.1406 60.8672Q146.0918 56.7656 143.1133 54.0801Q140.1348 51.3945 135.1543 51.3945Q130.418 51.3945 127.5859 53.6895Q124.7539 55.9844 124.7539 59.3047Q124.7539 62.2344 126.9023 64.041Q129.0508 65.7988 132.7617 66.6777L141.0625 68.6309Q148.4844 70.3887 151.9512 73.9043Q155.418 77.3711 155.418 82.9375Q155.418 87.7227 152.8301 91.1406Q150.2422 94.5586 145.75 96.3652Q141.3066 98.1719 135.6914 98.1719ZM165.1836 97L165.1836 45.4375L173.4844 45.4375L173.4844 97L165.1836 97ZM169.334 35.3789Q166.9902 35.3789 165.3301 33.7188Q163.6699 32.0586 163.6699 29.7148Q163.6699 27.3711 165.3301 25.7109Q166.9902 24.0508 169.334 24.0508Q171.6777 24.0508 173.3379 25.7109Q174.998 27.3711 174.998 29.7148Q174.998 32.0586 173.3379 33.7188Q171.6777 35.3789 169.334 35.3789ZM207.0781 98.1719Q199.9492 98.1719 194.5293 94.7539Q189.1582 91.2871 186.1309 85.2324Q183.1523 79.1777 183.1523 71.3164Q183.1523 63.4062 186.1309 57.3027Q189.1582 51.1992 194.5293 47.7324Q199.9492 44.2656 207.0781 44.2656Q214.2559 44.2656 219.627 47.7324Q224.998 51.1992 227.9766 57.3027Q231.0039 63.4062 231.0039 71.3164Q231.0039 79.1777 227.9766 85.2324Q224.998 91.2871 219.627 94.7539Q214.2559 98.1719 207.0781 98.1719ZM207.0781 90.6523Q211.9609 90.6523 215.4277 88.2598Q218.8945 85.8672 220.75 81.5215Q222.6055 77.127 222.6055 71.3164Q222.6055 65.4082 220.75 61.0625Q218.8945 56.668 215.4277 54.2266Q211.9609 51.7852 207.0781 51.7852Q202.2441 51.7852 198.7285 54.2266Q195.2617 56.6191 193.4062 61.0137Q191.5508 65.4082 191.5508 71.3164Q191.5508 77.1758 193.4062 81.5215Q195.2617 85.8672 198.7285 88.2598Q202.1953 90.6523 207.0781 90.6523ZM248.9727 66.8242L248.9727 97L240.6719 97L240.6719 45.4375L248.7773 45.4375L248.7773 57.9375L246.4336 57.9375Q248.9727 50.9551 253.4648 47.7324Q258.0059 44.4609 264.1094 44.4609Q269.334 44.4609 273.6309 46.7559Q277.9277 49.002 280.4668 53.543Q283.0547 58.084 283.0547 64.9688L283.0547 97L274.7539 97L274.7539 65.5547Q274.7539 58.8652 271.5312 55.4961Q268.3574 52.0781 262.5469 52.0781Q258.7871 52.0781 255.7109 53.5918Q252.6348 55.1055 250.7793 58.377Q248.9727 61.5996 248.9727 66.8242Z"/></g></g><clipPath id="clip_23"><rect width="1024" height="1024" rx="230" ry="230"/></clipPath><g clip-path="url(#clip_23)"><g opacity="0.44"><path fill="#FFF" fill-opacity="0.34" transform="matrix(0.996195 0.0871557 -0.0871557 0.996195 817.028 664.279)" d="M80 56L80 10Q80 5.8579 77.0711 2.9289Q74.1421 0 70 0L10 0Q5.8579 0 2.9289 2.9289Q0 5.8579 0 10L0 56Q0 60.1421 2.9289 63.0711Q5.8579 66 10 66L70 66Q74.1421 66 77.0711 63.0711Q80 60.1421 80 56ZM76.0104 3.9896Q78.5 6.4792 78.5 10L78.5 56Q78.5 59.5208 76.0104 62.0104Q73.5208 64.5 70 64.5L10 64.5Q6.4792 64.5 3.9896 62.0104Q1.5 59.5208 1.5 56L1.5 10Q1.5 6.4792 3.9896 3.9896Q6.4792 1.5 10 1.5L70 1.5Q73.5208 1.5 76.0104 3.9896Z" fill-rule="evenodd"/><clipPath id="clip_24"><rect x="811.0001" y="458" width="261.9999" height="295"/></clipPath><g clip-path="url(#clip_24)"><g opacity="0.28"><clipPath id="clip_25"><rect x="837.0001" y="460" width="260.9999" height="295"/></clipPath><g clip-path="url(#clip_25)"><path fill="#FFF" transform="matrix(0.996195 0.0871557 -0.0871557 0.996195 840.838 690.453)" d="M1.084 14L1.084 3.0869L8.2031 3.0869L8.2031 4.7349L3.0396 4.7349L3.0396 7.6719L7.8223 7.6719L7.8223 9.3052L3.0396 9.3052L3.0396 12.3521L8.2324 12.3521L8.2324 14L1.084 14ZM11.9751 9.2246L11.9751 14L10.0708 14L10.0708 5.8335L11.8799 5.8335L11.9019 7.855L11.7407 7.855Q12.085 6.8003 12.7515 6.2656Q13.4253 5.731 14.4214 5.731Q15.2637 5.731 15.8936 6.0898Q16.5234 6.4487 16.8677 7.1372Q17.2192 7.8257 17.2192 8.8145L17.2192 14L15.3223 14L15.3223 9.1074Q15.3223 8.2798 14.8901 7.8184Q14.4653 7.3496 13.7183 7.3496Q13.2202 7.3496 12.8247 7.5693Q12.4292 7.7891 12.2021 8.2065Q11.9751 8.624 11.9751 9.2246ZM22.2363 14.1465Q21.2695 14.1465 20.5005 13.6484Q19.7388 13.1504 19.2993 12.2129Q18.8599 11.2681 18.8599 9.9351Q18.8599 8.5801 19.3066 7.6426Q19.7607 6.6978 20.5225 6.2144Q21.2915 5.731 22.229 5.731Q22.9468 5.731 23.4082 5.9727Q23.877 6.207 24.1553 6.5439Q24.4336 6.8809 24.5801 7.1812L24.6533 7.1812L24.6533 3.0869L26.5576 3.0869L26.5576 14L24.6973 14L24.6973 12.7109L24.5801 12.7109Q24.4263 13.0112 24.1406 13.3481Q23.8623 13.6777 23.4009 13.9121Q22.9395 14.1465 22.2363 14.1465ZM22.749 12.5864Q23.3716 12.5864 23.8037 12.2495Q24.2432 11.9126 24.4702 11.3193Q24.6973 10.7188 24.6973 9.9277Q24.6973 9.1294 24.4702 8.5435Q24.2432 7.9502 23.811 7.6279Q23.3789 7.2983 22.749 7.2983Q22.1118 7.2983 21.6797 7.6353Q21.2476 7.9722 21.0278 8.5654Q20.8081 9.1587 20.8081 9.9277Q20.8081 10.6895 21.0278 11.2974Q21.2476 11.8979 21.6797 12.2422Q22.1191 12.5864 22.749 12.5864Z"/></g></g></g></g></g><clipPath id="clip_26"><rect width="1024" height="1024" rx="230" ry="230"/></clipPath><g clip-path="url(#clip_26)"><g opacity="0.55"><path fill="#FFF" fill-opacity="0.45" transform="matrix(0.951057 0.309017 -0.309017 0.951057 699.846 115)" d="M108 104L108 12Q108 7.0294 104.4853 3.5147Q100.9706 0 96 0L12 0Q7.0294 0 3.5147 3.5147Q0 7.0294 0 12L0 104Q0 108.9706 3.5147 112.4853Q7.0294 116 12 116L96 116Q100.9706 116 104.4853 112.4853Q108 108.9706 108 104ZM103.4246 4.5754Q106.5 7.6508 106.5 12L106.5 104Q106.5 108.3492 103.4246 111.4246Q100.3492 114.5 96 114.5L12 114.5Q7.6508 114.5 4.5754 111.4246Q1.5 108.3492 1.5 104L1.5 12Q1.5 7.6508 4.5754 4.5754Q7.6508 1.5 12 1.5L96 1.5Q100.3492 1.5 103.4246 4.5754Z" fill-rule="evenodd"/><clipPath id="clip_27"><rect x="664" y="-52" width="360" height="365"/></clipPath><g clip-path="url(#clip_27)"><g opacity="0.4"><path fill="#FFF" transform="matrix(0.951057 0.309017 -0.309017 0.951057 727.893 164.594)" d="M4.375 18.5312L2.6562 16.8125L11.9688 7.5L21.2812 16.8125L19.5625 18.5312L11.9688 10.9688L4.375 18.5312Z"/></g></g></g></g></svg>